<svg fill="#000000" height="200px" width="200px" version="1.1" id="Layer_1" xmlns="http://www.w3.org/2000/svg" xmlns:xlink="http://www.w3.org/1999/xlink" viewBox="0 0 210 210" xml:space="preserve" transform="rotate(90)" stroke="#000000" stroke-width="3.3600000000000003"><g id="SVGRepo_bgCarrier" stroke-width="0"></g><g id="SVGRepo_tracerCarrier" stroke-linecap="round" stroke-linejoin="round"></g><g id="SVGRepo_iconCarrier"> <g id="XMLID_27_"> <path id="XMLID_28_" d="M25,80C11.215,80,0,91.215,0,105s11.215,25,25,25c13.785,0,25-11.215,25-25S38.785,80,25,80z"></path> <path id="XMLID_30_" d="M105,80c-13.785,0-25,11.215-25,25s11.215,25,25,25c13.785,0,25-11.215,25-25S118.785,80,105,80z"></path> <path id="XMLID_71_" d="M185,80c-13.785,0-25,11.215-25,25s11.215,25,25,25c13.785,0,25-11.215,25-25S198.785,80,185,80z"></path> </g> </g></svg>